<svg id="Capa_1" enable-background="new 0 0 512 512" height="512" viewBox="0 0 512 512" width="512" xmlns="http://www.w3.org/2000/svg"><g><path d="m437.02 74.98c-48.352-48.351-112.64-74.98-181.02-74.98-4.142 0-7.5 3.357-7.5 7.5v45c0 4.143 3.358 7.5 7.5 7.5 108.075 0 196 87.925 196 196s-87.925 196-196 196-196-87.925-196-196c0-4.143-3.358-7.5-7.5-7.5h-45c-4.142 0-7.5 3.357-7.5 7.5 0 68.38 26.629 132.667 74.98 181.02 48.353 48.351 112.64 74.98 181.02 74.98s132.668-26.629 181.02-74.98c48.351-48.353 74.98-112.64 74.98-181.02s-26.629-132.667-74.98-181.02zm-421.905 188.52h30.016c1.847 52.526 22.993 100.225 56.539 136.223l-21.224 21.224c-38.967-41.448-63.465-96.647-65.331-157.447zm240.885 233.5c-63.753 0-121.794-24.891-164.94-65.453l21.216-21.216c37.704 35.137 88.245 56.669 143.724 56.669 116.346 0 211-94.654 211-211 0-113.832-90.618-206.9-203.5-210.868v-30.017c129.436 3.972 233.5 110.503 233.5 240.885 0 132.888-108.112 241-241 241z"/><path d="m256 362c58.448 0 106-47.552 106-106s-47.552-106-106-106c-4.142 0-7.5 3.357-7.5 7.5v45c0 4.143 3.358 7.5 7.5 7.5 25.364 0 46 20.636 46 46s-20.636 46-46 46-46-20.636-46-46c0-4.143-3.358-7.5-7.5-7.5h-45c-4.142 0-7.5 3.357-7.5 7.5 0 58.448 47.551 106 106 106zm61-106c0-31.096-23.391-56.832-53.5-60.541v-30.153c46.685 3.824 83.5 43.04 83.5 90.694 0 47.652-36.818 86.862-83.5 90.689v-30.167c30.108-3.71 53.5-29.427 53.5-60.522zm-121.542 7.5c3.406 27.65 25.392 49.618 53.042 53.025v30.146c-44.207-3.626-79.572-38.962-83.194-83.171z"/><path d="m256 437c99.804 0 181-81.196 181-181s-81.196-181-181-181c-4.142 0-7.5 3.357-7.5 7.5v45c0 4.143 3.358 7.5 7.5 7.5 66.72 0 121 54.28 121 121s-54.28 121-121 121c-27.517 0-53.446-9.002-74.984-26.033-3.249-2.568-7.966-2.018-10.535 1.23-2.569 3.249-2.018 7.966 1.231 10.535 24.214 19.148 53.36 29.268 84.288 29.268 34.802 0 66.588-13.146 90.667-34.726l21.232 21.232c-29.534 27-68.825 43.494-111.899 43.494-89.019 0-161.896-70.436-165.833-158.5h30.033c1.504 28.131 11.477 54.542 29.068 76.789 2.568 3.249 7.287 3.799 10.535 1.23 3.249-2.569 3.8-7.286 1.231-10.535-17.032-21.538-26.034-47.467-26.034-74.984 0-4.143-3.358-7.5-7.5-7.5h-45c-4.142 0-7.5 3.357-7.5 7.5 0 99.804 81.196 181 181 181zm7.5-316.796v-30.037c88.064 3.937 158.5 76.814 158.5 165.833 0 43.073-16.494 82.365-43.494 111.898l-21.232-21.232c21.58-24.078 34.726-55.864 34.726-90.666 0-72.474-56.985-131.889-128.5-135.796z"/></g></svg>